<svg width="350" height="70" viewBox="0 0 350 70" fill="none" xmlns="http://www.w3.org/2000/svg">
<path d="M3.11336 0.5H346.887C347.979 0.5 348.705 1.6302 348.251 2.62364L333.925 33.9606C333.624 34.6207 333.624 35.3793 333.925 36.0394L348.251 67.3764C348.705 68.3698 347.979 69.5 346.887 69.5H3.11337C2.02104 69.5 1.295 68.3698 1.74915 67.3764L16.0746 36.0394C16.3764 35.3793 16.3764 34.6207 16.0746 33.9606L1.74915 2.62364C1.295 1.63019 2.02103 0.5 3.11336 0.5Z" fill="#141768" stroke="#141768"/>
<path opacity="0.3" d="M12.2532 5.5H337.747C338.865 5.5 339.59 6.67938 339.085 7.67714L325.833 33.8714C325.474 34.581 325.474 35.419 325.833 36.1286L339.085 62.3229C339.59 63.3206 338.865 64.5 337.747 64.5H12.2532C11.135 64.5 10.41 63.3206 10.9147 62.3229L24.1665 36.1286C24.5255 35.419 24.5255 34.581 24.1665 33.8714L10.9147 7.67714C10.41 6.67939 11.135 5.5 12.2532 5.5Z" fill="#141768" stroke="#9C9C9C"/>
</svg>
