<svg width="47" height="54" viewBox="0 0 47 54" fill="none" xmlns="http://www.w3.org/2000/svg">
<ellipse cx="23.5" cy="53" rx="11.5" ry="1" fill="#D8D8D8"/>
<mask id="path-2-inside-1_121_15051" fill="white">
<path fill-rule="evenodd" clip-rule="evenodd" d="M30.5233 45.9325C40.0713 42.9462 47 34.0323 47 23.5C47 10.5213 36.4787 0 23.5 0C10.5213 0 0 10.5213 0 23.5C0 34.0165 6.90796 42.9195 16.4338 45.9191L23.4853 52.9706L30.5233 45.9325Z"/>
</mask>
<path fill-rule="evenodd" clip-rule="evenodd" d="M30.5233 45.9325C40.0713 42.9462 47 34.0323 47 23.5C47 10.5213 36.4787 0 23.5 0C10.5213 0 0 10.5213 0 23.5C0 34.0165 6.90796 42.9195 16.4338 45.9191L23.4853 52.9706L30.5233 45.9325Z" fill="white"/>
<path d="M30.5233 45.9325L30.2248 44.9781L29.9901 45.0515L29.8162 45.2254L30.5233 45.9325ZM16.4338 45.9191L17.1409 45.212L16.9677 45.0388L16.7341 44.9652L16.4338 45.9191ZM23.4853 52.9706L22.7782 53.6777L23.4853 54.3848L24.1924 53.6777L23.4853 52.9706ZM46 23.5C46 33.5826 39.3674 42.1186 30.2248 44.9781L30.8218 46.8869C40.7752 43.7739 48 34.482 48 23.5H46ZM23.5 1C35.9264 1 46 11.0736 46 23.5H48C48 9.96902 37.031 -1 23.5 -1V1ZM1 23.5C1 11.0736 11.0736 1 23.5 1V-1C9.96902 -1 -1 9.96902 -1 23.5H1ZM16.7341 44.9652C7.61275 42.0931 1 33.5675 1 23.5H-1C-1 34.4655 6.20318 43.746 16.1335 46.8729L16.7341 44.9652ZM24.1924 52.2635L17.1409 45.212L15.7267 46.6262L22.7782 53.6777L24.1924 52.2635ZM29.8162 45.2254L22.7782 52.2635L24.1924 53.6777L31.2304 46.6396L29.8162 45.2254Z" fill="#E9E6DF" mask="url(#path-2-inside-1_121_15051)"/>
<path d="M13.5463 13.6937L16.005 37.9638C16.0345 38.2552 16.2947 38.4671 16.5867 38.4376C16.8786 38.408 17.091 38.1482 17.0615 37.8568L15.8374 25.7742C17.067 25.2435 19.8633 24.1267 22.25 23.8709L22.4811 26.3426C22.4862 26.3925 22.4974 26.4418 22.5169 26.4883C22.5464 26.5633 22.8326 27.2277 23.742 27.5534C24.9424 27.9832 26.6106 27.6171 28.7033 26.4634C32.8497 24.1734 35.8997 26.9933 36.0278 27.1144C36.1419 27.2225 36.2962 27.2729 36.4478 27.2576C36.4973 27.2526 36.5461 27.2402 36.5942 27.2213C36.7864 27.1431 36.9169 26.9592 36.925 26.752C36.9301 26.6166 36.9965 23.5592 32.381 21.3947C32.9873 20.8256 34.2108 19.9911 36.0724 20.1074C36.2852 20.1191 36.4922 20.0014 36.586 19.8057C36.6798 19.6095 36.6435 19.3763 36.4952 19.2178C36.4541 19.172 32.2322 14.7288 27.368 17.4116C26.8788 17.6809 26.425 17.8862 25.9903 18.061L25.5865 14.0747C25.5862 14.0721 25.5846 14.0701 25.5841 14.0676C25.5819 14.0483 25.5714 14.0313 25.5671 14.0125C25.5547 13.9585 25.5401 13.906 25.5131 13.8603C25.5105 13.8558 25.5109 13.8503 25.508 13.8458C24.8497 12.8008 23.5806 12.3116 21.7328 12.392C19.2775 12.5062 16.3228 13.6052 14.6759 14.2988L14.6037 13.5865L15.5654 12.4102C15.6916 12.2564 15.7202 12.0455 15.6413 11.8637L14.0303 8.17297C13.8458 7.75056 13.1195 7.82414 13.0234 8.27498L12.1853 12.2138C12.1444 12.4077 12.2148 12.6087 12.3693 12.734L13.5473 13.6936L13.5463 13.6937ZM24.9569 18.4079C24.299 18.5687 23.7468 18.5871 23.3181 18.4451C23.0212 18.3479 22.8016 18.0831 22.7435 17.7538L22.7191 17.5127C22.7167 17.4899 22.7049 17.4714 22.6998 17.4495C22.7078 17.425 22.7308 17.41 22.7351 17.3837C22.9335 16.1844 23.9284 15.3852 24.6081 14.9665L24.9567 18.4082L24.9569 18.4079ZM27.8797 18.3396C30.7856 16.7354 33.4066 18.1017 34.7595 19.1084C32.3369 19.4844 31.1202 21.2004 31.0611 21.2855C30.9702 21.4174 30.9434 21.584 30.9892 21.7375C31.0351 21.8914 31.1478 22.0163 31.2966 22.0768C33.9629 23.168 35.0729 24.5283 35.5356 25.4925C34.0564 24.6676 31.3711 23.779 28.1898 25.5354C25.9686 26.7582 24.761 26.7723 24.1412 26.5692C23.7628 26.4454 23.5879 26.231 23.5286 26.1398L22.8989 19.4209C22.9272 19.4316 22.9563 19.4417 22.9844 19.4508C23.7169 19.6954 24.6271 19.6475 25.6912 19.308C26.3579 19.0981 27.0939 18.7717 27.8798 18.3394L27.8797 18.3396ZM21.7792 13.4506C22.8688 13.4032 23.6795 13.5774 24.1988 13.9695C23.3542 14.4608 21.9691 15.5087 21.688 17.2117C21.6789 17.2676 21.6857 17.3214 21.6938 17.3745C21.6711 17.4358 21.659 17.5019 21.6599 17.5713C21.6607 17.6742 21.6744 17.7757 21.6909 17.8773C21.6912 17.8808 21.6894 17.8841 21.6898 17.8876L22.1519 22.828C19.8476 23.0731 17.2346 24.0362 15.7251 24.6702L14.7865 15.4045C16.2804 14.7583 19.3262 13.5733 21.7788 13.4504L21.7792 13.4506ZM13.7171 10.1126L14.5368 11.9912L13.9768 12.6761L13.2908 12.1174L13.7171 10.1126Z" fill="#9C9C9C"/>
</svg>
