<svg width="44" height="51" viewBox="0 0 44 51" fill="none" xmlns="http://www.w3.org/2000/svg">
<ellipse cx="21.7592" cy="49.9594" rx="10.7346" ry="0.87037" fill="#D8D8D8"/>
<mask id="path-2-inside-1_411_943" fill="white">
<path fill-rule="evenodd" clip-rule="evenodd" d="M28.2625 43.3598C37.1031 40.5947 43.5185 32.3411 43.5185 22.589C43.5185 10.5717 33.7766 0.829773 21.7593 0.829773C9.74195 0.829773 0 10.5717 0 22.589C0 34.6063 9.74195 44.3483 21.7593 44.3483C24.0245 44.3483 26.2089 44.0021 28.2625 43.3598Z"/>
</mask>
<path fill-rule="evenodd" clip-rule="evenodd" d="M28.2625 43.3598C37.1031 40.5947 43.5185 32.3411 43.5185 22.589C43.5185 10.5717 33.7766 0.829773 21.7593 0.829773C9.74195 0.829773 0 10.5717 0 22.589C0 34.6063 9.74195 44.3483 21.7593 44.3483C24.0245 44.3483 26.2089 44.0021 28.2625 43.3598Z" fill="white"/>
<path d="M28.2625 43.3598L27.964 42.4054L27.964 42.4054L28.2625 43.3598ZM42.5185 22.589C42.5185 31.8914 36.3992 39.7671 27.964 42.4054L28.561 44.3142C37.807 41.4223 44.5185 32.7908 44.5185 22.589H42.5185ZM21.7593 1.82977C33.2243 1.82977 42.5185 11.124 42.5185 22.589H44.5185C44.5185 10.0194 34.3288 -0.170227 21.7593 -0.170227V1.82977ZM1 22.589C1 11.124 10.2942 1.82977 21.7593 1.82977V-0.170227C9.18967 -0.170227 -1 10.0194 -1 22.589H1ZM21.7593 43.3483C10.2942 43.3483 1 34.054 1 22.589H-1C-1 35.1586 9.18967 45.3483 21.7593 45.3483V43.3483ZM27.964 42.4054C26.0059 43.0178 23.9221 43.3483 21.7593 43.3483V45.3483C24.1269 45.3483 26.4119 44.9864 28.561 44.3142L27.964 42.4054Z" fill="#681417" mask="url(#path-2-inside-1_411_943)"/>
<path d="M19.9547 25.9993H23.29C23.5665 25.9993 23.7902 25.7756 23.7902 25.4991V22.4979C23.7902 21.3025 22.8182 20.3304 21.6223 20.3304C20.4265 20.3304 19.4545 21.3025 19.4545 22.4979V25.4991C19.4545 25.7756 19.6782 25.9993 19.9547 25.9993ZM20.4549 22.4979C20.4549 21.8545 20.9785 21.3309 21.6223 21.3309C22.2661 21.3309 22.7898 21.8545 22.7898 22.4979V24.9989H20.4549V22.4979Z" fill="#681417"/>
<path d="M26.6243 26.1657C26.6243 26.4421 26.848 26.6659 27.1245 26.6659H28.4581C28.7345 26.6659 28.9583 26.4421 28.9583 26.1657C28.9583 25.8892 28.7345 25.6655 28.4581 25.6655H27.1245C26.848 25.6655 26.6243 25.8892 26.6243 26.1657Z" fill="#681417"/>
<path d="M12.7854 20.6634H10.7846C10.5081 20.6634 10.2844 20.8871 10.2844 21.1636V29.0006H9.78414C9.50769 29.0006 9.28394 29.2243 9.28394 29.5008V32.1684C9.28394 32.4448 9.50769 32.6686 9.78414 32.6686H15.1194V33.5024C15.1194 33.7789 15.3431 34.0026 15.6196 34.0026H27.6246C27.901 34.0026 28.1248 33.7789 28.1248 33.5024V32.6686H33.4601C33.7365 32.6686 33.9603 32.4448 33.9603 32.1684V29.5008C33.9603 29.2243 33.7365 29.0006 33.4601 29.0006H32.9598V21.1636C32.9598 20.8871 32.7361 20.6634 32.4596 20.6634H30.4588C30.1824 20.6634 29.9586 20.8871 29.9586 21.1636V22.6642C29.9586 23.2158 29.4349 23.6646 28.7921 23.6646C28.4716 23.6646 28.1708 23.5532 27.9479 23.3549C27.7398 23.1649 27.6246 22.9197 27.6246 22.6642V21.1636C27.6246 20.8871 27.4008 20.6634 27.1244 20.6634H25.7908V20.3704L28.3115 17.8492C28.4053 17.7554 28.458 17.6284 28.458 17.4955V14.1606C28.458 13.8842 28.2342 13.6604 27.9578 13.6604H25.2906C25.0142 13.6604 24.7904 13.8842 24.7904 14.1606V15.6613H23.1227V14.1606C23.1227 13.8842 22.899 13.6604 22.6225 13.6604H22.1223V9.90933C22.5337 9.60072 23.1696 9.43615 24.0647 10.0627C24.5414 10.3959 25.0309 10.5634 25.5253 10.5634C25.6857 10.5634 25.8478 10.5453 26.009 10.5096C27.2645 10.2322 28.0255 8.94396 28.0576 8.88925C28.1456 8.7374 28.1436 8.54982 28.0585 8.39596C27.9735 8.2421 27.8104 8.1443 27.6345 8.13804C27.6246 8.13804 26.6311 8.09026 24.9097 6.88798C23.7791 6.09702 22.8039 5.93804 22.1224 5.96771V5.4905C22.1224 5.21405 21.8986 4.9903 21.6221 4.9903C21.3457 4.9903 21.1219 5.21405 21.1219 5.4905V13.6602H20.6217C20.3453 13.6602 20.1215 13.8839 20.1215 14.1604V15.661H18.4539V14.1604C18.4539 13.8839 18.2301 13.6602 17.9536 13.6602H15.2865C15.01 13.6602 14.7863 13.8839 14.7863 14.1604V17.4953C14.7863 17.6281 14.839 17.7552 14.9328 17.849L17.4535 20.3702V20.6631H16.1199C15.8434 20.6631 15.6197 20.8869 15.6197 21.1633V22.664C15.6197 22.9194 15.5045 23.1646 15.3001 23.3513C15.0735 23.5529 14.7727 23.6644 14.452 23.6644C13.8091 23.6644 13.2855 23.2155 13.2855 22.6639V21.1633C13.2855 20.8869 13.0617 20.6631 12.7853 20.6631L12.7854 20.6634ZM24.3371 7.70827C25.3629 8.42486 26.1738 8.78283 26.7345 8.96125C26.4922 9.20399 26.1689 9.44985 25.7926 9.53269C25.4183 9.61621 25.0373 9.52242 24.6379 9.24262C23.5901 8.50951 22.7268 8.56422 22.1221 8.79399V6.9682C22.6292 6.93605 23.3963 7.05038 24.3368 7.70823L24.3371 7.70827ZM10.2844 31.668V30.0007H17.4536V30.3344H15.6198C15.3434 30.3344 15.1196 30.5581 15.1196 30.8346V31.6679L10.2844 31.668ZM27.1245 33.002H16.1199V31.3348H27.1245V33.002ZM32.9601 31.668H28.125V30.8346C28.125 30.5581 27.9013 30.3344 27.6248 30.3344H25.791V30.0007H32.9603L32.9601 31.668ZM26.6243 21.6638V22.6642C26.6243 23.2044 26.8547 23.712 27.2779 24.0978C27.6884 24.4636 28.2256 24.665 28.7922 24.665C29.9871 24.665 30.9591 23.7678 30.9591 22.6642V21.6638H31.9595V26.6708H31.1262C30.8497 26.6708 30.626 26.8945 30.626 27.171C30.626 27.4474 30.8497 27.6712 31.1262 27.6712H31.9595V29.0003H25.7907V25.1652H26.457C26.7335 25.1652 26.9572 24.9415 26.9572 24.665C26.9572 24.3886 26.7335 24.1648 26.457 24.1648H25.7907V21.6638L26.6243 21.6638ZM15.7866 17.2885V14.6609H17.4534V16.1615C17.4534 16.438 17.6771 16.6617 17.9536 16.6617H20.6217C20.8981 16.6617 21.1219 16.438 21.1219 16.1615V14.6609H22.1223V16.1615C22.1223 16.438 22.3461 16.6617 22.6225 16.6617H25.2906C25.567 16.6617 25.7908 16.438 25.7908 16.1615V14.6609H27.4576V17.2885L24.9368 19.8097C24.8431 19.9035 24.7904 20.0306 24.7904 20.1634V30.3345H18.454V20.1634C18.454 20.0306 18.4013 19.9035 18.3075 19.8097L15.7866 17.2885ZM14.4521 24.6653C15.0189 24.6653 15.5561 24.4641 15.9704 24.0948C16.3896 23.7122 16.62 23.2047 16.62 22.6645V21.664H17.4534V24.1651H16.7871C16.5106 24.1651 16.2868 24.3888 16.2868 24.6653C16.2868 24.9417 16.5106 25.1655 16.7871 25.1655H17.4534V29.0006H11.2845V27.6715H12.1179C12.3944 27.6715 12.6181 27.4477 12.6181 27.1713C12.6181 26.8948 12.3944 26.671 12.1179 26.671H11.2845V21.664H12.285V22.6645C12.285 23.7681 13.257 24.6653 14.4519 24.6653L14.4521 24.6653Z" fill="#681417"/>
<path d="M14.7862 26.6659H16.1198C16.3963 26.6659 16.62 26.4421 16.62 26.1657C16.62 25.8892 16.3963 25.6655 16.1198 25.6655H14.7862C14.5098 25.6655 14.286 25.8892 14.286 26.1657C14.286 26.4421 14.5098 26.6659 14.7862 26.6659Z" fill="#681417"/>
</svg>
