<svg width="30" height="30" viewBox="0 0 44 44" fill="none" xmlns="http://www.w3.org/2000/svg">
<path d="M22 0C16.1651 0 10.5693 2.31786 6.44388 6.44388C2.31786 10.5694 0 16.1652 0 22C0 27.8348 2.31786 33.4307 6.44388 37.5561C10.5694 41.6821 16.1652 44 22 44C27.8348 44 33.4307 41.6821 37.5561 37.5561C41.6821 33.4306 44 27.8348 44 22C43.9925 16.1675 41.6722 10.5763 37.5477 6.45281C33.4237 2.32832 27.8324 0.00803641 22.0005 0.000510897L22 0ZM22 39.5995C17.3324 39.5995 12.8557 37.745 9.55485 34.4446C6.25446 31.1438 4.4 26.667 4.4 21.9995C4.4 17.332 6.25446 12.8552 9.55485 9.55434C12.8557 6.25395 17.3325 4.39949 22 4.39949C26.6675 4.39949 31.1443 6.25395 34.4452 9.55434C37.7455 12.8552 39.6 17.332 39.6 21.9995C39.596 26.6661 37.7406 31.1408 34.4407 34.4402C31.1413 37.7401 26.6666 39.5955 22 39.5995Z" fill="#681417"/>
<path d="M32.7377 19.7381H24.2619V11.2623C24.2619 10.4539 23.831 9.70751 23.1312 9.30316C22.4314 8.89895 21.5686 8.89895 20.8688 9.30316C20.169 9.70738 19.7381 10.4538 19.7381 11.2623V19.7381H11.2623C10.4539 19.7381 9.70751 20.169 9.30316 20.8688C8.89895 21.5686 8.89895 22.4314 9.30316 23.1312C9.70738 23.831 10.4538 24.2619 11.2623 24.2619H19.7381V32.7377C19.7381 33.5461 20.169 34.2925 20.8688 34.6968C21.5686 35.1011 22.4314 35.1011 23.1312 34.6968C23.831 34.2926 24.2619 33.5462 24.2619 32.7377V24.2619H32.7377C33.5461 24.2619 34.2925 23.831 34.6968 23.1312C35.1011 22.4314 35.1011 21.5686 34.6968 20.8688C34.2926 20.169 33.5462 19.7381 32.7377 19.7381Z" fill="#681417"/>
</svg>
