<svg width="31" height="30" viewBox="0 0 31 30" fill="none" xmlns="http://www.w3.org/2000/svg">
<path d="M21.0769 3.09962C17.6072 3.09962 14.7837 5.92299 14.7837 9.39398C14.7837 9.79454 15.3897 9.79454 15.3897 9.39398C15.3899 6.25735 17.9412 3.70568 21.0769 3.70568C21.4806 3.70568 21.481 3.09967 21.0771 3.09967L21.0769 3.09962ZM21.0763 0.9066C16.3899 0.9066 12.5904 4.70632 12.5904 9.39306C12.5904 14.0797 16.3897 17.8795 21.0763 17.8795C25.7631 17.8795 29.5622 14.0798 29.5622 9.39306C29.5622 4.70622 25.7634 0.9066 21.0763 0.9066ZM21.0763 17.2735C16.7245 17.2735 13.1964 13.7454 13.1964 9.39306C13.1964 5.04058 16.7243 1.51266 21.0763 1.51266C25.4283 1.51266 28.9562 5.04074 28.9562 9.39306C28.9562 13.7451 25.4283 17.2735 21.0763 17.2735ZM21.0765 0.00021646C15.888 0.00021646 11.6815 4.20681 11.6815 9.39631C11.6815 11.4537 12.3446 13.3547 13.4658 14.9022C13.4658 14.9022 12.824 15.5334 12.8213 15.5307C12.7027 15.4121 12.5112 15.4121 12.3928 15.5307L0.75268 27.1724C0.377275 27.547 0.378752 28.1591 0.75268 28.5324L1.93872 29.7189C2.31603 30.0956 2.92562 30.092 3.29894 29.7189L14.9391 18.0771C15.0577 17.9586 15.0577 17.767 14.9391 17.6487C14.9363 17.6457 15.5675 17.0048 15.5675 17.0048C17.1156 18.1275 19.0184 18.7916 21.0767 18.7916C26.2651 18.7916 30.4717 14.5856 30.4717 9.39609C30.4719 4.20659 26.2651 0 21.0767 0L21.0765 0.00021646ZM2.36658 29.2902L1.18076 28.1042C1.04527 27.9687 1.04041 27.7412 1.18076 27.6011L2.86988 29.2902C2.73101 29.4287 2.50525 29.4287 2.36658 29.2902ZM3.29856 28.8615L1.60944 27.1729L11.8767 16.9045L13.5661 18.5932L3.29856 28.8615ZM13.9944 18.1646L12.3053 16.4752L12.6826 16.0977C12.6854 16.1007 14.369 17.7843 14.372 17.7875L13.9944 18.1646ZM14.5768 17.1381L13.332 15.8929L13.8387 15.3862C14.2139 15.839 14.6305 16.2558 15.0835 16.6321L14.5768 17.1381ZM21.0762 18.1857C16.222 18.1857 12.2873 14.2509 12.2873 9.3962C12.2875 4.54172 16.2223 0.606173 21.0762 0.606173C25.9303 0.606173 29.8652 4.54161 29.8652 9.3962C29.8652 14.2509 25.9306 18.1857 21.0762 18.1857Z" fill="white"/>
</svg>
