<svg width="14" height="16" viewBox="0 0 14 16" fill="none" xmlns="http://www.w3.org/2000/svg">
<path d="M4.6093 12.5882C3.45497 12.8333 2.44246 12.6086 2.72611 13.9572C3.0096 15.3059 4.18412 16.205 5.33831 15.9597C6.49249 15.7145 7.2215 14.3864 6.938 13.0378C6.65449 11.6891 5.78366 12.3225 4.6093 12.5882V12.5882Z" fill="#2E2E2E"/>
<path d="M4.50805 11.9956C4.58899 11.9752 4.64987 11.9547 4.73081 11.9343C5.1156 11.8117 5.48003 11.6686 5.78385 11.403C6.10789 11.117 6.29011 10.6878 6.37103 10.2588C6.57359 9.1962 6.43177 8.01101 6.08754 7.00987C5.80404 6.1926 5.37871 5.43644 4.75099 4.84393C4.26495 4.37399 3.59666 3.98572 2.90819 4.10832C2.19936 4.2309 1.67293 4.88484 1.36922 5.55919C0.923712 6.58087 0.862962 7.72512 1.08572 8.80811C1.24774 9.58463 1.59197 10.3406 1.97676 11.0353C2.21972 11.444 2.54377 11.8323 2.98927 12.0161C3.49553 12.2204 4.02201 12.1387 4.50805 11.9956Z" fill="#2E2E2E"/>
<path d="M10.2793 8.60362C9.12502 8.52194 8.15305 7.78634 7.93029 9.15536C7.70754 10.5244 8.51748 11.7709 9.69202 11.9547C10.8667 12.1386 12.0007 11.1782 12.2032 9.80917C12.4056 8.44011 11.4337 8.86914 10.2793 8.60362Z" fill="#2E2E2E"/>
<path d="M11.4944 0.0214636C10.4009 -0.142024 9.63135 0.654872 9.1251 1.51309C8.5783 2.41221 8.27459 3.45425 8.19351 4.51684C8.15297 5.06859 8.19352 5.62019 8.29479 6.17194C8.39607 6.64188 8.47701 7.13232 8.88198 7.4593C9.14527 7.66369 9.46916 7.76575 9.7932 7.84758C10.2589 7.97016 10.7248 8.01106 11.2107 8.01106C11.7979 8.01106 12.1624 7.78628 12.4865 7.29581C13.094 6.39669 13.4382 5.35464 13.5192 4.27166C13.5799 3.27037 13.4179 2.12608 12.9724 1.2066C12.8104 0.900153 12.608 0.593553 12.3447 0.368782C12.0815 0.184769 11.8184 0.0827173 11.4943 0.0214271L11.4944 0.0214636Z" fill="#2E2E2E"/>
</svg>
