<svg width="36" height="32" viewBox="0 0 36 32" fill="none" xmlns="http://www.w3.org/2000/svg">
<path d="M32.5157 0.637483C32.3714 0.513628 32.1754 0.470247 31.9924 0.520474C31.81 0.571271 31.664 0.709393 31.6037 0.890043C30.7074 3.55833 28.9544 5.56602 26.3921 6.85535C24.5792 7.76798 22.975 7.98321 22.7619 8.00827H0.571072C0.255802 8.00827 0 8.26482 0 8.58103V12.0353C0 12.3515 0.255802 12.608 0.571072 12.608H11.6475C11.9289 12.8894 12.5618 13.5883 13.0005 14.5828C13.7531 16.2886 13.6091 18.0437 12.5726 19.7999C11.0153 22.4391 10.657 25.0383 10.6309 26.7532C10.5998 28.7885 11.0025 30.403 11.3562 31.1678C11.4529 31.377 11.6589 31.4997 11.8746 31.4997C11.8791 31.4997 11.8837 31.4994 11.888 31.4988C11.8911 31.4991 11.8954 31.4997 11.8985 31.4997C12.1842 31.4997 12.4309 31.2857 12.465 30.994C12.844 27.7792 14.4093 25.6779 15.4519 24.6055C15.5053 27.0349 16.5909 28.6759 17.5788 29.6724C18.8347 30.9383 20.1874 31.4437 20.2441 31.4649C20.4606 31.5448 20.7042 31.4857 20.861 31.315C21.0172 31.1444 21.0559 30.8961 20.9586 30.6858C20.5022 29.6998 19.3614 25.0615 22.1221 20.3839C23.6731 17.7558 23.2332 15.5019 22.5913 14.0741C22.3287 13.49 22.0137 12.9968 21.7217 12.6082H22.7631C22.9731 12.6327 24.5469 12.8393 26.3557 13.7422C28.9379 15.0311 30.7038 17.0447 31.6044 19.7264C31.6648 19.9065 31.8107 20.0452 31.9931 20.096C32.0432 20.1094 32.0944 20.1165 32.1453 20.1165C32.2799 20.1165 32.4117 20.0691 32.5167 19.979C32.6589 19.8571 36 16.9146 36 10.3076C35.9994 3.70157 32.6583 0.758952 32.5161 0.636945L32.5157 0.637483ZM21.1384 19.8005C19.5811 22.4397 19.2228 25.039 19.1967 26.7538C19.1788 27.9222 19.304 28.953 19.4807 29.7626C19.1298 29.5275 18.7363 29.2204 18.3573 28.8334C16.9443 27.3905 16.3743 25.547 16.6637 23.3532C16.693 23.1303 16.5894 22.9106 16.3993 22.7919C16.2093 22.6729 15.9668 22.6769 15.7805 22.8016C15.6507 22.8883 13.0682 24.6594 11.8546 28.4339C11.6165 26.4191 11.7698 23.4097 13.5553 20.3837C14.6192 18.5803 14.7462 16.9531 14.514 15.6478H21.9177C22.2201 17.0159 21.9595 18.408 21.138 19.8007L21.1384 19.8005ZM21.5293 14.5027H14.1999C14.1441 14.3525 14.085 14.2093 14.0241 14.074C13.7614 13.4898 13.4464 12.9967 13.1548 12.608H20.2134C20.4877 12.8814 21.0929 13.5512 21.5293 14.5027ZM33.3146 17.004C32.9711 17.6421 32.626 18.1313 32.35 18.4768C31.0129 15.3337 28.6695 13.6185 26.864 12.7167C24.7689 11.6711 22.9713 11.4776 22.8526 11.4653H22.85C22.8492 11.4653 22.8483 11.465 22.8475 11.465C22.8372 11.4639 22.8267 11.4641 22.8168 11.4639C22.8085 11.4636 22.8008 11.4621 22.7926 11.4621H22.7906H22.7874H1.14152V9.15316H22.7874H22.7892H22.792C22.8011 9.15316 22.8099 9.1523 22.819 9.15201C22.8281 9.15173 22.8375 9.15173 22.8463 9.15087C22.8472 9.15059 22.8481 9.15059 22.8489 9.15059H22.8515C22.9701 9.1386 24.7679 8.94483 26.8629 7.89918C28.6683 6.99794 31.0124 5.28255 32.3488 2.13873C33.2417 3.25484 34.8559 5.88352 34.8559 10.308C34.8562 13.4709 34.0174 15.6949 33.314 17.0039L33.3146 17.004Z" fill="#681417"/>
</svg>
