<svg width="49" height="50" viewBox="0 0 43 50" fill="none" xmlns="http://www.w3.org/2000/svg">
<path d="M18.39 36.207H24.1381C24.6146 36.207 25.0002 35.8214 25.0002 35.345V30.1726C25.0002 28.1125 23.3249 26.4373 21.2641 26.4373C19.2032 26.4373 17.528 28.1125 17.528 30.1726V35.345C17.528 35.8214 17.9136 36.207 18.39 36.207ZM19.2521 30.1726C19.2521 29.0638 20.1546 28.1614 21.2641 28.1614C22.3736 28.1614 23.2761 29.0639 23.2761 30.1726V34.4829H19.2521V30.1726Z" fill="#D8D8D8"/>
<path d="M29.8845 36.4937C29.8845 36.9702 30.2701 37.3558 30.7466 37.3558H33.0449C33.5213 37.3558 33.9069 36.9702 33.9069 36.4937C33.9069 36.0173 33.5213 35.6317 33.0449 35.6317H30.7466C30.2701 35.6317 29.8845 36.0173 29.8845 36.4937Z" fill="#681417"/>
<path d="M6.03443 27.0111H2.58618C2.10974 27.0111 1.72412 27.3967 1.72412 27.8731V41.3794H0.862061C0.385622 41.3794 0 41.765 0 42.2415V46.8388C0 47.3153 0.385622 47.7009 0.862061 47.7009H10.0569V49.1379C10.0569 49.6144 10.4425 50 10.9189 50H31.6084C32.0848 50 32.4704 49.6144 32.4704 49.1379V47.7009H41.6652C42.1417 47.7009 42.5273 47.3153 42.5273 46.8388V42.2415C42.5273 41.765 42.1417 41.3794 41.6652 41.3794H40.8032V27.8731C40.8032 27.3967 40.4175 27.0111 39.9411 27.0111H36.4929C36.0164 27.0111 35.6308 27.3967 35.6308 27.8731V30.4593C35.6308 31.4099 34.7283 32.1834 33.6204 32.1834C33.0681 32.1834 32.5497 31.9914 32.1656 31.6496C31.8069 31.3221 31.6084 30.8996 31.6084 30.4593V27.8731C31.6084 27.3967 31.2227 27.0111 30.7463 27.0111H28.448V26.5061L32.7922 22.1611C32.9538 21.9995 33.0446 21.7805 33.0446 21.5515V15.8042C33.0446 15.3278 32.659 14.9422 32.1826 14.9422H27.586C27.1095 14.9422 26.7239 15.3278 26.7239 15.8042V18.3904H23.8499V15.8042C23.8499 15.3278 23.4642 14.9422 22.9878 14.9422H22.1257V8.47749C22.8346 7.94563 23.9306 7.662 25.4732 8.74188C26.2948 9.31607 27.1384 9.60471 27.9905 9.60471C28.2668 9.60471 28.5462 9.57353 28.8241 9.51196C30.9877 9.03397 32.2992 6.81376 32.3547 6.71947C32.5063 6.45778 32.5029 6.1345 32.3562 5.86934C32.2096 5.60418 31.9287 5.43562 31.6254 5.42485C31.6085 5.42485 29.8963 5.34249 26.9295 3.27048C24.981 1.90734 23.3004 1.63335 22.1258 1.68449V0.862061C22.1258 0.385622 21.7402 0 21.2637 0C20.7873 0 20.4017 0.385622 20.4017 0.862061V14.9417H19.5396C19.0632 14.9417 18.6775 15.3274 18.6775 15.8038V18.39H15.8035V15.8038C15.8035 15.3274 15.4179 14.9417 14.9414 14.9417H10.3448C9.86837 14.9417 9.48275 15.3274 9.48275 15.8038V21.5511C9.48275 21.7801 9.57358 21.9991 9.73521 22.1607L14.0794 26.5057V27.0106H11.7811C11.3047 27.0106 10.919 27.3963 10.919 27.8727V30.4589C10.919 30.8991 10.7205 31.3217 10.3683 31.6434C9.97771 31.9909 9.45931 32.183 8.90667 32.183C7.7987 32.183 6.89624 31.4094 6.89624 30.4588V27.8727C6.89624 27.3962 6.51062 27.0106 6.03418 27.0106L6.03443 27.0111ZM25.9426 4.68417C27.7106 5.91914 29.108 6.53608 30.0744 6.84356C29.6568 7.26189 29.0996 7.68561 28.4511 7.82839C27.8061 7.97232 27.1495 7.81069 26.461 7.32847C24.6553 6.06504 23.1675 6.15932 22.1253 6.55531V3.40874C22.9993 3.35332 24.3212 3.55036 25.9422 4.68409L25.9426 4.68417ZM1.72412 45.9764V43.1031H14.0797V43.6781H10.9193C10.4429 43.6781 10.0572 44.0637 10.0572 44.5401V45.9764L1.72412 45.9764ZM30.7465 48.2755H11.7812V45.4022H30.7465V48.2755ZM40.8036 45.9764H32.4708V44.5402C32.4708 44.0637 32.0852 43.6781 31.6088 43.6781H28.4484V43.1031H40.804L40.8036 45.9764ZM29.8844 28.7352V30.4593C29.8844 31.3902 30.2816 32.265 31.0109 32.93C31.7183 33.5604 32.6442 33.9075 33.6206 33.9075C35.6799 33.9075 37.3551 32.3612 37.3551 30.4593V28.7352H39.0792V37.3642H37.643C37.1666 37.3642 36.7809 37.7499 36.7809 38.2263C36.7809 38.7027 37.1666 39.0884 37.643 39.0884H39.0792V41.379H28.4478V34.7696H29.5962C30.0726 34.7696 30.4582 34.384 30.4582 33.9075C30.4582 33.4311 30.0726 33.0455 29.5962 33.0455H28.4478V28.7352L29.8844 28.7352ZM11.2068 21.1949V16.6663H14.0793V19.2525C14.0793 19.7289 14.4649 20.1146 14.9413 20.1146H19.5395C20.016 20.1146 20.4016 19.7289 20.4016 19.2525V16.6663H22.1257V19.2525C22.1257 19.7289 22.5113 20.1146 22.9878 20.1146H27.5859C28.0624 20.1146 28.448 19.7289 28.448 19.2525V16.6663H31.3205V21.1949L26.9763 25.5398C26.8147 25.7015 26.7238 25.9205 26.7238 26.1494V43.6783H15.8037V26.1494C15.8037 25.9205 15.7129 25.7015 15.5513 25.5398L11.2068 21.1949ZM8.90691 33.908C9.88366 33.908 10.8096 33.5613 11.5235 32.9247C12.2459 32.2655 12.643 31.3908 12.643 30.4597V28.7356H14.0793V33.0459H12.9309C12.4545 33.0459 12.0689 33.4315 12.0689 33.908C12.0689 34.3844 12.4545 34.77 12.9309 34.77H14.0793V41.3794H3.44785V39.0888H4.88409C5.36053 39.0888 5.74615 38.7032 5.74615 38.2268C5.74615 37.7503 5.36053 37.3647 4.88409 37.3647H3.44785V28.7356H5.17197V30.4597C5.17197 32.3617 6.84723 33.908 8.90652 33.908L8.90691 33.908Z" fill="#681417"/>
<path d="M9.48267 37.3558H11.781C12.2574 37.3558 12.643 36.9702 12.643 36.4937C12.643 36.0173 12.2574 35.6317 11.781 35.6317H9.48267C9.00623 35.6317 8.62061 36.0173 8.62061 36.4937C8.62061 36.9702 9.00623 37.3558 9.48267 37.3558Z" fill="#681417"/>
</svg>
