<svg width="49" height="50" viewBox="0 0 49 50" fill="none" xmlns="http://www.w3.org/2000/svg">
<path d="M44.5192 5.31897H47.5949C48.0713 5.31897 48.457 4.93335 48.457 4.45691C48.457 3.98047 48.0713 3.59485 47.5949 3.59485H44.5192C44.1162 1.54895 42.3125 0 40.1495 0H8.30742C6.14458 0 4.34036 1.54905 3.9378 3.59485H0.862062C0.385623 3.59485 0 3.98047 0 4.45691C0 4.93335 0.385623 5.31897 0.862062 5.31897H3.9378C4.23337 6.81945 5.284 8.04447 6.67601 8.5952V41.4048C5.284 41.9555 4.23337 43.1804 3.9378 44.681H0.862062C0.385623 44.681 0 45.0666 0 45.5431C0 46.0195 0.385623 46.4051 0.862062 46.4051H3.9378C4.34073 48.451 6.14448 50 8.30742 50H40.1495C42.3124 50 44.1166 48.4509 44.5192 46.4051H47.5949C48.0713 46.4051 48.457 46.0195 48.457 45.5431C48.457 45.0666 48.0713 44.681 47.5949 44.681H44.5192C44.2236 43.1805 43.173 41.9555 41.7809 41.4048V8.5952C43.173 8.04449 44.2236 6.81955 44.5192 5.31897ZM8.40023 41.0852V8.91402H40.0571V41.0852H8.40023ZM5.57503 4.45691C5.57503 2.94983 6.80073 1.72412 8.30781 1.72412H40.1499C41.657 1.72412 42.8827 2.94983 42.8827 4.45691C42.8827 5.96399 41.657 7.19049 40.1499 7.19049L8.30683 7.1901C6.79975 7.1901 5.57404 5.96361 5.57404 4.45653L5.57503 4.45691ZM42.8831 45.5433C42.8831 47.0504 41.6574 48.2761 40.1503 48.2761L8.30821 48.2757C6.80113 48.2757 5.57542 47.05 5.57542 45.5429C5.57542 44.0358 6.80113 42.8093 8.30821 42.8093H40.1503C41.6574 42.8093 42.8831 44.0358 42.8831 45.5429V45.5433Z" fill="#D8D8D8"/>
<path d="M14.214 15.59H34.2434C34.7198 15.59 35.1055 15.2044 35.1055 14.728C35.1055 14.2515 34.7198 13.8659 34.2434 13.8659H14.214C13.7376 13.8659 13.3519 14.2515 13.3519 14.728C13.3519 15.2044 13.7376 15.59 14.214 15.59Z" fill="#D8D8D8"/>
<path d="M32.538 19.8649C32.538 19.3884 32.1523 19.0028 31.6759 19.0028H23.2539C22.7775 19.0028 22.3918 19.3884 22.3918 19.8649C22.3918 20.3413 22.7775 20.7269 23.2539 20.7269H31.6759C32.1523 20.7269 32.538 20.3413 32.538 19.8649Z" fill="#D8D8D8"/>
<path d="M21.206 19.8649C21.206 19.3884 20.8204 19.0028 20.3439 19.0028H16.781C16.3046 19.0028 15.9189 19.3884 15.9189 19.8649C15.9189 20.3413 16.3046 20.7269 16.781 20.7269H20.3439C20.8204 20.7269 21.206 20.3413 21.206 19.8649Z" fill="#D8D8D8"/>
<path d="M17.809 25.8619H30.6493C31.1257 25.8619 31.5113 25.4763 31.5113 24.9998C31.5113 24.5234 31.1257 24.1378 30.6493 24.1378H17.809C17.3325 24.1378 16.9469 24.5234 16.9469 24.9998C16.9469 25.4763 17.3325 25.8619 17.809 25.8619Z" fill="#D8D8D8"/>
<path d="M34.2433 29.2737H29.3253C28.8489 29.2737 28.4633 29.6593 28.4633 30.1357C28.4633 30.6122 28.8489 30.9978 29.3253 30.9978H34.2433C34.7197 30.9978 35.1054 30.6122 35.1054 30.1357C35.1054 29.6593 34.7197 29.2737 34.2433 29.2737Z" fill="#D8D8D8"/>
<path d="M25.7794 30.1348C25.7794 29.6583 25.3938 29.2727 24.9174 29.2727H14.214C13.7376 29.2727 13.3519 29.6583 13.3519 30.1348C13.3519 30.6112 13.7376 30.9968 14.214 30.9968H24.9174C25.3938 30.9968 25.7794 30.6112 25.7794 30.1348Z" fill="#D8D8D8"/>
<path d="M31.676 34.4096H16.7815C16.3051 34.4096 15.9194 34.7952 15.9194 35.2717C15.9194 35.7481 16.3051 36.1337 16.7815 36.1337H31.676C32.1524 36.1337 32.538 35.7481 32.538 35.2717C32.538 34.7952 32.1524 34.4096 31.676 34.4096Z" fill="#D8D8D8"/>
</svg>
