<svg width="49" height="50" viewBox="0 0 44 50" fill="none" xmlns="http://www.w3.org/2000/svg">
<path d="M13.9253 24.5792H13.9848C14.3213 24.5792 14.6118 24.3217 14.6384 23.9788C14.6714 23.6222 14.7108 23.266 14.7438 22.9163L14.7704 22.672C14.8034 22.309 14.5394 21.9855 14.1764 21.9525C13.8198 21.9195 13.4898 22.1835 13.4568 22.5465L13.4303 22.7908C13.3973 23.1405 13.3578 23.5035 13.3248 23.8665C13.2983 24.2227 13.5623 24.5462 13.9253 24.5792Z" fill="#681417"/>
<path d="M12.21 15.2736C11.7018 15.1613 11.1605 15.1613 10.626 15.2736C10.2695 15.3461 10.0385 15.6961 10.1113 16.0523C10.1773 16.3626 10.4478 16.5803 10.758 16.5803C10.8043 16.5803 10.8438 16.5738 10.89 16.5671C11.2466 16.4946 11.5963 16.4946 11.9263 16.5671C12.2828 16.6463 12.6325 16.4153 12.7118 16.0588C12.7908 15.7026 12.5666 15.3528 12.21 15.2736Z" fill="#681417"/>
<path d="M14.5792 28.4532C14.5329 28.0637 14.4999 27.6415 14.4935 27.1992C14.487 26.8362 14.1767 26.5722 13.8202 26.5525C13.4572 26.559 13.1667 26.8628 13.1735 27.2258C13.1867 27.7143 13.2197 28.1763 13.2725 28.6053C13.3119 28.9417 13.596 29.186 13.926 29.186C13.9525 29.186 13.9787 29.186 14.0052 29.1795C14.3679 29.1462 14.6252 28.8162 14.5792 28.4532Z" fill="#681417"/>
<path d="M13.6553 19.3452C13.6686 19.7017 13.9588 19.9787 14.3153 19.9787H14.3418C14.7048 19.9654 14.9886 19.6552 14.9753 19.2922C14.9556 18.7114 14.8828 18.2362 14.7576 17.8204C14.6521 17.4707 14.2823 17.2727 13.9325 17.3781C13.5828 17.4836 13.3848 17.8534 13.4903 18.2032C13.5825 18.507 13.6353 18.8764 13.6553 19.3452Z" fill="#681417"/>
<path d="M24.1557 33.4564C23.7729 33.6412 23.5022 33.7469 23.4032 33.7799C23.2909 33.8194 23.1722 33.8592 23.0534 33.8854C22.7037 33.9779 22.4924 34.3409 22.5782 34.6907C22.6574 34.9877 22.9214 35.1857 23.2184 35.1857C23.2712 35.1857 23.3307 35.1792 23.3834 35.166C23.5419 35.1265 23.7002 35.0734 23.8454 35.0207C23.9907 34.968 24.3074 34.8492 24.7364 34.638C25.0664 34.4794 25.1984 34.0834 25.0399 33.7534C24.8816 33.4299 24.4857 33.2914 24.1557 33.4564Z" fill="#681417"/>
<path d="M20.0569 33.9249C19.6544 33.8524 19.2516 33.7534 18.8689 33.6279C18.5256 33.5091 18.1493 33.7071 18.0374 34.0504C17.9252 34.3937 18.1099 34.7699 18.4599 34.8818C18.9022 35.0271 19.3642 35.1458 19.8262 35.2251C19.8657 35.2316 19.9054 35.2384 19.9449 35.2384C20.2617 35.2384 20.5389 35.0138 20.5917 34.6906C20.6574 34.3341 20.4199 33.9909 20.0569 33.9249Z" fill="#681417"/>
<path d="M15.5892 31.3837L15.5167 31.2714C15.3122 30.9679 14.903 30.8819 14.5992 31.0867C14.2957 31.2847 14.2097 31.6939 14.4144 32.0042L14.507 32.1427C14.7512 32.4924 15.0414 32.8224 15.365 33.1262C15.4905 33.2449 15.6555 33.3045 15.8137 33.3045C15.992 33.3045 16.1702 33.232 16.2954 33.0932C16.5462 32.8292 16.5264 32.4067 16.2624 32.1627C16.0049 31.9117 15.7804 31.6544 15.5892 31.3837Z" fill="#681417"/>
<path d="M30.0361 29.3117C29.7786 29.0541 29.3628 29.0541 29.1056 29.3117L28.2476 30.1697L27.3961 29.3182C27.1386 29.0606 26.7228 29.0606 26.4656 29.3182C26.2081 29.5757 26.2081 29.9914 26.4656 30.2486L27.3171 31.1002L26.4656 31.9517C26.2081 32.2092 26.2081 32.6249 26.4656 32.8822C26.5911 33.0142 26.7561 33.0802 26.9276 33.0802C27.0991 33.0802 27.2641 33.0142 27.3961 32.8886L28.2476 32.0306L29.0991 32.8822C29.2311 33.0142 29.3961 33.0802 29.5676 33.0802C29.7391 33.0802 29.9041 33.0142 30.0361 32.8886C30.2936 32.6311 30.2936 32.2154 30.0361 31.9581L29.1781 31.1001L30.0296 30.2486C30.2936 29.9914 30.2936 29.5689 30.0361 29.3117Z" fill="#681417"/>
<path d="M38.8077 8C36.4052 8 34.8477 9.29345 34.8477 11.3H24.8353C23.6671 11.3 22.5519 11.6895 21.6475 12.3955C20.7433 11.6895 19.6345 11.3 18.4598 11.3H8.44736C8.44736 9.29345 6.8964 8 4.48735 8C2.07831 8 0.527344 9.29345 0.527344 11.3V37.2513C0.527344 39.317 2.21031 41 4.27608 41H18.4597C19.6147 41 20.7432 40.604 21.6475 39.8978C22.5517 40.604 23.6802 41 24.8352 41H39.0189C41.0846 41 42.7676 39.317 42.7676 37.2513V11.3C42.7676 9.29345 41.2101 8 38.8076 8H38.8077ZM36.1677 11.3C36.1677 9.51152 38.0157 9.32 38.8077 9.32C39.5997 9.32 41.4477 9.51152 41.4477 11.3V33.7929C41.3882 33.7534 41.3157 33.7204 41.2562 33.6806C41.177 33.6343 41.1045 33.5881 41.0187 33.5486C40.8932 33.4891 40.7612 33.4363 40.6227 33.3836C40.537 33.3506 40.4577 33.3176 40.3652 33.2911C40.2067 33.2448 40.0417 33.2118 39.8702 33.1788C39.7909 33.1656 39.7117 33.1458 39.6259 33.1326C39.3622 33.0999 39.0915 33.0801 38.8077 33.0801C38.5239 33.0801 38.2532 33.0999 37.9891 33.1396C37.9034 33.1529 37.8306 33.1726 37.7449 33.1859C37.5734 33.2189 37.4084 33.2519 37.2499 33.2981C37.1574 33.3247 37.0784 33.3577 36.9924 33.3907C36.8539 33.4434 36.7219 33.4961 36.5964 33.5557C36.5106 33.5952 36.4378 33.6414 36.3589 33.6877C36.2929 33.7272 36.2269 33.7537 36.1674 33.7999L36.1677 11.9603L36.1677 11.3ZM36.2402 35.8128C36.2402 35.8064 36.2402 35.7931 36.2467 35.7863C36.2797 35.6676 36.3259 35.5618 36.3787 35.4628C36.3919 35.4363 36.4052 35.4165 36.4182 35.3903C36.4709 35.3046 36.5304 35.2188 36.5964 35.1461C36.6029 35.1396 36.6029 35.1328 36.6097 35.1263C36.6822 35.0471 36.7614 34.9811 36.8472 34.9151C36.8669 34.9018 36.8867 34.8885 36.9067 34.8756C36.986 34.8228 37.0717 34.7701 37.1574 34.7238C37.1639 34.7238 37.1707 34.7174 37.1772 34.7106C37.2697 34.6643 37.3687 34.6248 37.4677 34.5918C37.4874 34.5854 37.514 34.5786 37.5337 34.5721C37.6262 34.5391 37.7184 34.5126 37.811 34.4928C37.8174 34.4928 37.8242 34.4928 37.8242 34.4864C37.9232 34.4666 38.0222 34.4469 38.1212 34.4336H38.141V36.2156C37.7252 36.3476 37.2962 36.3806 36.8672 36.3476C36.7947 36.3411 36.7219 36.3411 36.6559 36.3344C36.6362 36.3344 36.6097 36.3211 36.5899 36.3211C36.4514 36.2946 36.3127 36.2684 36.1742 36.2221C36.1742 36.2024 36.1742 36.1891 36.1807 36.1694C36.1942 36.0503 36.214 35.9248 36.2402 35.8128ZM6.63292 36.3408C6.56044 36.3541 6.48766 36.3541 6.41518 36.3606C6.32266 36.3671 6.23044 36.3803 6.13792 36.3803C6.08518 36.3803 6.02566 36.3738 5.97292 36.3671C5.69566 36.3538 5.4184 36.3143 5.14788 36.2286V34.4466H5.16762C5.26662 34.4598 5.36562 34.4796 5.46462 34.4993C5.4711 34.4993 5.47788 34.4993 5.48436 34.5058C5.57688 34.5255 5.6691 34.5521 5.76162 34.5851C5.78136 34.5915 5.80788 34.5983 5.82762 34.6048C5.92662 34.6378 6.02562 34.6773 6.11814 34.7235C6.12463 34.73 6.1314 34.73 6.13788 34.7368C6.22362 34.7831 6.30936 34.8293 6.38862 34.8821C6.40837 34.8953 6.42811 34.9086 6.44814 34.9283C6.53388 34.9878 6.61314 35.0603 6.68562 35.1396C6.6921 35.1461 6.69888 35.1528 6.69888 35.1593C6.76488 35.2318 6.8244 35.3111 6.87714 35.4036C6.8904 35.4301 6.90366 35.4498 6.91662 35.4761C6.96937 35.5751 7.01562 35.6806 7.04862 35.7996C7.04862 35.8061 7.04862 35.8193 7.05511 35.8261C7.08811 35.9384 7.10137 36.0571 7.11462 36.1891C7.11462 36.2089 7.11462 36.2221 7.12111 36.2419C7.05511 36.2616 6.98263 36.2749 6.90985 36.2881C6.81762 36.3011 6.72544 36.3276 6.63292 36.3408ZM1.84787 11.3C1.84787 9.51152 3.69587 9.32 4.48788 9.32C5.27988 9.32 7.12788 9.51152 7.12788 11.3V33.7929C7.06836 33.7534 6.99588 33.7204 6.93636 33.6874C6.8571 33.6411 6.77784 33.5949 6.69888 33.5554C6.57336 33.4959 6.44136 33.4431 6.30288 33.3904C6.21714 33.3574 6.13788 33.3244 6.04536 33.2979C5.88684 33.2516 5.72184 33.2186 5.55036 33.1856C5.4711 33.1723 5.39184 33.1461 5.3061 33.1393C5.04239 33.0999 4.77162 33.0801 4.48785 33.0801C4.20408 33.0801 3.93332 33.0999 3.66929 33.1396C3.58355 33.1529 3.51077 33.1726 3.42503 33.1859C3.25355 33.2189 3.08855 33.2519 2.93003 33.2982C2.83751 33.3247 2.75855 33.3577 2.67251 33.3907C2.53403 33.4434 2.40203 33.4962 2.27651 33.5557C2.19077 33.5952 2.11799 33.6414 2.03903 33.6877C1.97303 33.7272 1.90703 33.7537 1.84751 33.7932L1.84787 11.3ZM41.448 37.2513C41.448 38.591 40.3589 39.68 39.0192 39.68H24.8356C23.8258 39.68 22.8291 39.2707 22.1163 38.5515C21.9843 38.426 21.8193 38.36 21.6478 38.36C21.4764 38.36 21.3114 38.426 21.1794 38.5515C20.4663 39.2707 19.4763 39.68 18.4601 39.68H4.27646C2.9367 39.68 1.84773 38.591 1.84773 37.2513V36.38C1.84773 36.2282 1.86748 36.083 1.89399 35.951C1.90048 35.918 1.90725 35.8915 1.91373 35.8585C1.94673 35.7329 1.98622 35.621 2.03247 35.5152C2.03896 35.5019 2.04573 35.4955 2.05222 35.4822C2.09847 35.3897 2.15769 35.3039 2.2237 35.2247C2.23695 35.2049 2.25021 35.1852 2.26995 35.1719C2.34244 35.0927 2.42169 35.0134 2.50095 34.9542C2.51421 34.9409 2.53395 34.9345 2.54721 34.9212C2.62647 34.8617 2.70573 34.8157 2.79147 34.7695C2.80473 34.763 2.82447 34.7497 2.83773 34.7429C2.93673 34.6967 3.03573 34.6504 3.13473 34.6174C3.15448 34.6045 3.16773 34.598 3.18748 34.5915C3.28 34.5585 3.379 34.532 3.47122 34.5122C3.48447 34.5122 3.49096 34.5058 3.50422 34.5058C3.6097 34.4792 3.7087 34.4663 3.8077 34.453H3.82744V36.6905C3.82744 36.9481 3.97918 37.1855 4.21696 37.291C4.83748 37.5615 5.49102 37.7 6.13775 37.7C6.78448 37.7 7.43799 37.5615 8.05824 37.2842C8.29572 37.1788 8.44776 36.941 8.44776 36.6838V12.6197H18.4602C19.4896 12.6197 20.4535 13.0222 21.1795 13.7482C21.4302 13.999 21.866 13.999 22.1099 13.7482C22.8359 13.0222 23.7994 12.6197 24.8292 12.6197H34.8477V36.683C34.8477 36.9405 34.9994 37.178 35.2372 37.2835C35.8574 37.561 36.5042 37.6995 37.1577 37.6995C37.8112 37.6995 38.4579 37.561 39.0782 37.2838C39.3157 37.1783 39.4677 36.9405 39.4677 36.6833V34.4458H39.4874C39.5864 34.459 39.6854 34.4788 39.7909 34.4985C39.7974 34.4985 39.8107 34.505 39.8174 34.505C39.91 34.5247 40.009 34.5577 40.1012 34.5843C40.1209 34.5907 40.1407 34.5975 40.1539 34.604C40.2529 34.637 40.3519 34.6833 40.4509 34.7295C40.4642 34.736 40.4839 34.7493 40.4972 34.756C40.5829 34.8023 40.6622 34.855 40.7414 34.9078C40.7547 34.921 40.768 34.9275 40.7877 34.9408C40.8734 35.0068 40.9527 35.0793 41.0252 35.1653C41.0384 35.185 41.0517 35.2048 41.0714 35.218C41.1374 35.2973 41.1902 35.383 41.2429 35.4756C41.2494 35.4888 41.2562 35.4953 41.2627 35.5086C41.3154 35.614 41.3552 35.7263 41.3814 35.8518C41.3879 35.8783 41.3947 35.9113 41.4011 35.9444C41.428 36.0825 41.4477 36.221 41.4477 36.3795L41.448 37.2513Z" fill="#681417"/>
<path d="M29.0729 16.1448C28.9276 15.8212 28.6044 15.6103 28.2478 15.6103C27.8913 15.6103 27.5681 15.8216 27.4228 16.1448L25.819 19.6693L25.1196 18.1248C24.9743 17.8013 24.6511 17.5903 24.2945 17.5903C23.938 17.5903 23.6148 17.8016 23.4695 18.1248L20.5522 24.5333C20.4202 24.817 20.4467 25.1405 20.6182 25.4046C20.7832 25.6621 21.0737 25.8203 21.3836 25.8203H27.2114C27.5217 25.8203 27.8054 25.6618 27.9769 25.4046C28.1419 25.1406 28.1684 24.817 28.0429 24.5333L27.7132 23.8403H31.1649C31.4752 23.8403 31.7589 23.6818 31.9304 23.4245C32.0954 23.1605 32.1219 22.837 31.9964 22.5533L29.0729 16.1448ZM22.0109 24.5L24.2879 19.4973L25.2184 21.5433L25.7991 22.817L26.5649 24.5H22.0109ZM27.1126 22.52L26.5452 21.266L28.2479 17.5173L30.5249 22.52H27.1126Z" fill="#681417"/>
</svg>
