<svg width="44" height="50" viewBox="0 0 44 50" fill="none" xmlns="http://www.w3.org/2000/svg">
<path d="M24.7907 2.86478V0.862054C24.7907 0.385619 24.4047 0 23.9278 0H19.0135C18.5366 0 18.1506 0.385619 18.1506 0.862054V2.86478C10.0357 4.55618 4 11.7966 4 20.0251V40.071C4 40.2469 4.05393 40.4185 4.15485 40.5629C4.40754 40.9281 10.4609 49.5024 18.4357 49.9974C18.6799 50.0101 18.9141 49.925 19.0897 49.7576C19.2634 49.589 19.3594 49.3562 19.3524 49.1138L19.0088 36.4647C18.8825 31.8993 16.0024 27.8157 11.8329 26.2994C11.4724 26.1716 11.1319 26.0696 10.8033 25.9923C10.8792 24.7099 10.9636 22.2115 10.6485 20.3231C13.0498 21.0882 17.8733 22.9024 20.8606 25.8875C21.1977 26.2243 21.7435 26.2243 22.0809 25.8875C25.0689 22.9023 29.892 21.0881 32.293 20.3231C31.9779 22.2115 32.0623 24.7099 32.1382 25.9923C31.8077 26.0704 31.4656 26.1731 31.1016 26.3021C26.9391 27.8156 24.059 31.8996 23.9327 36.4654L23.5891 49.1145C23.5822 49.3569 23.6785 49.5901 23.8518 49.7583C24.0136 49.9142 24.2293 50 24.4519 50C24.4704 50 24.4874 49.9992 24.5059 49.9985C32.4802 49.5036 38.5342 40.9292 38.7867 40.564C38.8876 40.42 38.9415 40.2484 38.9415 40.0721V20.0262C38.9415 11.7977 32.9055 4.55747 24.7909 2.86588L24.7907 2.86478ZM37.2156 39.7902C36.2973 41.0209 31.3984 47.2227 25.3419 48.1726L25.6585 36.5107C25.7649 32.6464 28.1897 29.194 31.6849 27.9229C32.2227 27.7327 32.7165 27.6096 33.1544 27.5576C33.6144 27.5022 33.9499 27.0927 33.911 26.6309C33.7357 24.5085 33.6903 20.6824 34.312 19.4474C34.4637 19.1469 34.4268 18.7847 34.2161 18.5223C34.0073 18.2598 33.6633 18.1436 33.3347 18.2225C33.0231 18.299 25.9601 20.0762 21.4709 24.0909C16.9814 20.0762 9.91862 18.299 9.60701 18.2225C9.27844 18.1443 8.93445 18.2594 8.72568 18.5223C8.51497 18.7847 8.47799 19.1469 8.62976 19.4474C9.25147 20.6824 9.20602 24.5085 9.03075 26.6309C8.99185 27.0931 9.32735 27.5022 9.78728 27.5576C10.2256 27.61 10.7191 27.7327 11.2503 27.9206C14.7521 29.1944 17.1773 32.6469 17.2833 36.5106L17.5999 48.1725C11.543 47.2227 6.64425 41.0209 5.72619 39.7902V20.025C5.72619 12.7249 11.0034 6.28438 18.1511 4.62431V9.04345C18.1511 9.51988 18.5371 9.9055 19.014 9.9055C19.4909 9.9055 19.8768 9.51988 19.8768 9.04345V1.72367H23.0655V9.04345C23.0655 9.51988 23.4515 9.9055 23.9283 9.9055C24.4052 9.9055 24.7912 9.51988 24.7912 9.04345V4.62431C31.9393 6.28418 37.2161 12.7246 37.2161 20.025L37.2156 39.7902Z" fill="#D8D8D8"/>
</svg>
